{
	"asset":{
		"generator":"Khronos glTF Blender I/O v4.4.55",
		"version":"2.0"
	},
	"scene":0,
	"scenes":[
		{
			"name":"Scene",
			"nodes":[
				0
			]
		}
	],
	"nodes":[
		{
			"mesh":0,
			"name":"Cylinder"
		}
	],
	"materials":[
		{
			"doubleSided":true,
			"name":"Walls",
			"pbrMetallicRoughness":{
				"baseColorFactor":[
					0.800000011920929,
					0.800000011920929,
					0.800000011920929,
					1
				],
				"metallicFactor":0,
				"roughnessFactor":0.5
			}
		},
		{
			"doubleSided":true,
			"name":"Floor",
			"pbrMetallicRoughness":{
				"baseColorFactor":[
					0.800000011920929,
					0.800000011920929,
					0.800000011920929,
					1
				],
				"metallicFactor":0,
				"roughnessFactor":0.5
			}
		},
		{
			"doubleSided":true,
			"name":"Ceiling",
			"pbrMetallicRoughness":{
				"baseColorFactor":[
					0.800000011920929,
					0.800000011920929,
					0.800000011920929,
					1
				],
				"metallicFactor":0,
				"roughnessFactor":0.5
			}
		},
		{
			"doubleSided":true,
			"name":"Exit",
			"pbrMetallicRoughness":{
				"baseColorFactor":[
					0.057215817272663116,
					0.0005494856741279364,
					0,
					1
				],
				"metallicFactor":0,
				"roughnessFactor":0.5
			}
		}
	],
	"meshes":[
		{
			"name":"Cylinder",
			"primitives":[
				{
					"attributes":{
						"POSITION":0,
						"NORMAL":1,
						"TEXCOORD_0":2
					},
					"indices":3,
					"material":0
				},
				{
					"attributes":{
						"POSITION":4,
						"NORMAL":5,
						"TEXCOORD_0":6
					},
					"indices":7,
					"material":1
				},
				{
					"attributes":{
						"POSITION":8,
						"NORMAL":9,
						"TEXCOORD_0":10
					},
					"indices":11,
					"material":2
				},
				{
					"attributes":{
						"POSITION":12,
						"NORMAL":13,
						"TEXCOORD_0":14
					},
					"indices":15,
					"material":3
				}
			]
		}
	],
	"accessors":[
		{
			"bufferView":0,
			"componentType":5126,
			"count":76,
			"max":[
				9.412485122680664,
				5.871068954467773,
				10.239999771118164
			],
			"min":[
				-9.587514877319336,
				-1.2550048828125,
				-9.58666706085205
			],
			"type":"VEC3"
		},
		{
			"bufferView":1,
			"componentType":5126,
			"count":76,
			"type":"VEC3"
		},
		{
			"bufferView":2,
			"componentType":5126,
			"count":76,
			"type":"VEC2"
		},
		{
			"bufferView":3,
			"componentType":5123,
			"count":144,
			"type":"SCALAR"
		},
		{
			"bufferView":4,
			"componentType":5126,
			"count":12,
			"max":[
				9.412485122680664,
				-1.2503981590270996,
				10.239999771118164
			],
			"min":[
				-9.587514877319336,
				-1.2550048828125,
				-9.58666706085205
			],
			"type":"VEC3"
		},
		{
			"bufferView":5,
			"componentType":5126,
			"count":12,
			"type":"VEC3"
		},
		{
			"bufferView":6,
			"componentType":5126,
			"count":12,
			"type":"VEC2"
		},
		{
			"bufferView":7,
			"componentType":5123,
			"count":24,
			"type":"SCALAR"
		},
		{
			"bufferView":8,
			"componentType":5126,
			"count":12,
			"max":[
				9.412485122680664,
				5.871068954467773,
				10.239999771118164
			],
			"min":[
				-9.587514877319336,
				5.869939804077148,
				-9.58666706085205
			],
			"type":"VEC3"
		},
		{
			"bufferView":9,
			"componentType":5126,
			"count":12,
			"type":"VEC3"
		},
		{
			"bufferView":10,
			"componentType":5126,
			"count":12,
			"type":"VEC2"
		},
		{
			"bufferView":11,
			"componentType":5123,
			"count":24,
			"type":"SCALAR"
		},
		{
			"bufferView":12,
			"componentType":5126,
			"count":8,
			"max":[
				5.137485504150391,
				5.871068954467773,
				-9.58666706085205
			],
			"min":[
				-4.837514877319336,
				-1.2550047636032104,
				-9.58666706085205
			],
			"type":"VEC3"
		},
		{
			"bufferView":13,
			"componentType":5126,
			"count":8,
			"type":"VEC3"
		},
		{
			"bufferView":14,
			"componentType":5126,
			"count":8,
			"type":"VEC2"
		},
		{
			"bufferView":15,
			"componentType":5123,
			"count":18,
			"type":"SCALAR"
		}
	],
	"bufferViews":[
		{
			"buffer":0,
			"byteLength":912,
			"byteOffset":0,
			"target":34962
		},
		{
			"buffer":0,
			"byteLength":912,
			"byteOffset":912,
			"target":34962
		},
		{
			"buffer":0,
			"byteLength":608,
			"byteOffset":1824,
			"target":34962
		},
		{
			"buffer":0,
			"byteLength":288,
			"byteOffset":2432,
			"target":34963
		},
		{
			"buffer":0,
			"byteLength":144,
			"byteOffset":2720,
			"target":34962
		},
		{
			"buffer":0,
			"byteLength":144,
			"byteOffset":2864,
			"target":34962
		},
		{
			"buffer":0,
			"byteLength":96,
			"byteOffset":3008,
			"target":34962
		},
		{
			"buffer":0,
			"byteLength":48,
			"byteOffset":3104,
			"target":34963
		},
		{
			"buffer":0,
			"byteLength":144,
			"byteOffset":3152,
			"target":34962
		},
		{
			"buffer":0,
			"byteLength":144,
			"byteOffset":3296,
			"target":34962
		},
		{
			"buffer":0,
			"byteLength":96,
			"byteOffset":3440,
			"target":34962
		},
		{
			"buffer":0,
			"byteLength":48,
			"byteOffset":3536,
			"target":34963
		},
		{
			"buffer":0,
			"byteLength":96,
			"byteOffset":3584,
			"target":34962
		},
		{
			"buffer":0,
			"byteLength":96,
			"byteOffset":3680,
			"target":34962
		},
		{
			"buffer":0,
			"byteLength":64,
			"byteOffset":3776,
			"target":34962
		},
		{
			"buffer":0,
			"byteLength":36,
			"byteOffset":3840,
			"target":34963
		}
	],
	"buffers":[
		{
			"byteLength":3876,
			"uri":"room1_enemyspawn.bin"
		}
	]
}
