{
	"asset":{
		"generator":"Khronos glTF Blender I/O v4.4.55",
		"version":"2.0"
	},
	"scene":0,
	"scenes":[
		{
			"name":"Scene",
			"nodes":[
				0
			]
		}
	],
	"nodes":[
		{
			"mesh":0,
			"name":"Cylinder"
		}
	],
	"materials":[
		{
			"doubleSided":true,
			"name":"Walls",
			"pbrMetallicRoughness":{
				"baseColorFactor":[
					0.800000011920929,
					0.800000011920929,
					0.800000011920929,
					1
				],
				"metallicFactor":0,
				"roughnessFactor":0.5
			}
		},
		{
			"doubleSided":true,
			"name":"Floor",
			"pbrMetallicRoughness":{
				"baseColorFactor":[
					0.800000011920929,
					0.800000011920929,
					0.800000011920929,
					1
				],
				"metallicFactor":0,
				"roughnessFactor":0.5
			}
		},
		{
			"doubleSided":true,
			"name":"Ceiling",
			"pbrMetallicRoughness":{
				"baseColorFactor":[
					0.800000011920929,
					0.800000011920929,
					0.800000011920929,
					1
				],
				"metallicFactor":0,
				"roughnessFactor":0.5
			}
		},
		{
			"doubleSided":true,
			"name":"Metal",
			"pbrMetallicRoughness":{
				"baseColorFactor":[
					0.800000011920929,
					0.800000011920929,
					0.800000011920929,
					1
				],
				"metallicFactor":0,
				"roughnessFactor":0.5
			}
		},
		{
			"doubleSided":true,
			"name":"Border",
			"pbrMetallicRoughness":{
				"baseColorFactor":[
					0.3341074287891388,
					0.3341074287891388,
					0.3341074287891388,
					1
				],
				"metallicFactor":0,
				"roughnessFactor":0.5
			}
		},
		{
			"doubleSided":true,
			"name":"Pit",
			"pbrMetallicRoughness":{
				"baseColorFactor":[
					0,
					0,
					0,
					1
				],
				"metallicFactor":0,
				"roughnessFactor":0.5
			}
		},
		{
			"doubleSided":true,
			"name":"WalkBorders",
			"pbrMetallicRoughness":{
				"baseColorFactor":[
					0.5388889312744141,
					0.46328550577163696,
					0.2185494303703308,
					1
				],
				"metallicFactor":0,
				"roughnessFactor":0.5
			}
		}
	],
	"meshes":[
		{
			"name":"Cylinder",
			"primitives":[
				{
					"attributes":{
						"POSITION":0,
						"NORMAL":1,
						"TEXCOORD_0":2
					},
					"indices":3,
					"material":0
				},
				{
					"attributes":{
						"POSITION":4,
						"NORMAL":5,
						"TEXCOORD_0":6
					},
					"indices":7,
					"material":1
				},
				{
					"attributes":{
						"POSITION":8,
						"NORMAL":9,
						"TEXCOORD_0":10
					},
					"indices":11,
					"material":2
				},
				{
					"attributes":{
						"POSITION":12,
						"NORMAL":13,
						"TEXCOORD_0":14
					},
					"indices":15,
					"material":3
				},
				{
					"attributes":{
						"POSITION":16,
						"NORMAL":17,
						"TEXCOORD_0":18
					},
					"indices":19,
					"material":4
				},
				{
					"attributes":{
						"POSITION":20,
						"NORMAL":21,
						"TEXCOORD_0":22
					},
					"indices":23,
					"material":5
				},
				{
					"attributes":{
						"POSITION":24,
						"NORMAL":25,
						"TEXCOORD_0":26
					},
					"indices":27,
					"material":6
				}
			]
		}
	],
	"accessors":[
		{
			"bufferView":0,
			"componentType":5126,
			"count":123,
			"max":[
				10.239999771118164,
				10.749601364135742,
				10.239999771118164
			],
			"min":[
				-10.239999771118164,
				-9.250398635864258,
				-3.4321608543395996
			],
			"type":"VEC3"
		},
		{
			"bufferView":1,
			"componentType":5126,
			"count":123,
			"type":"VEC3"
		},
		{
			"bufferView":2,
			"componentType":5126,
			"count":123,
			"type":"VEC2"
		},
		{
			"bufferView":3,
			"componentType":5123,
			"count":231,
			"type":"SCALAR"
		},
		{
			"bufferView":4,
			"componentType":5126,
			"count":17,
			"max":[
				10.239999771118164,
				-1.25039803981781,
				10.239999771118164
			],
			"min":[
				-10.239999771118164,
				-1.2503986358642578,
				-1.6570192575454712
			],
			"type":"VEC3"
		},
		{
			"bufferView":5,
			"componentType":5126,
			"count":17,
			"type":"VEC3"
		},
		{
			"bufferView":6,
			"componentType":5126,
			"count":17,
			"type":"VEC2"
		},
		{
			"bufferView":7,
			"componentType":5123,
			"count":48,
			"type":"SCALAR"
		},
		{
			"bufferView":8,
			"componentType":5126,
			"count":43,
			"max":[
				10.239998817443848,
				10.749601364135742,
				10.239999771118164
			],
			"min":[
				-10.239998817443848,
				10.732379913330078,
				-1.6872771978378296
			],
			"type":"VEC3"
		},
		{
			"bufferView":9,
			"componentType":5126,
			"count":43,
			"type":"VEC3"
		},
		{
			"bufferView":10,
			"componentType":5126,
			"count":43,
			"type":"VEC2"
		},
		{
			"bufferView":11,
			"componentType":5123,
			"count":66,
			"type":"SCALAR"
		},
		{
			"bufferView":12,
			"componentType":5126,
			"count":71,
			"max":[
				3.4237313270568848,
				10.732379913330078,
				2.3170089721679688
			],
			"min":[
				-3.4237313270568848,
				-9.03907585144043,
				-3.4321608543395996
			],
			"type":"VEC3"
		},
		{
			"bufferView":13,
			"componentType":5126,
			"count":71,
			"type":"VEC3"
		},
		{
			"bufferView":14,
			"componentType":5126,
			"count":71,
			"type":"VEC2"
		},
		{
			"bufferView":15,
			"componentType":5123,
			"count":111,
			"type":"SCALAR"
		},
		{
			"bufferView":16,
			"componentType":5126,
			"count":20,
			"max":[
				10.239998817443848,
				10.749601364135742,
				10.239999771118164
			],
			"min":[
				-10.239998817443848,
				-9.250398635864258,
				9.65701961517334
			],
			"type":"VEC3"
		},
		{
			"bufferView":17,
			"componentType":5126,
			"count":20,
			"type":"VEC3"
		},
		{
			"bufferView":18,
			"componentType":5126,
			"count":20,
			"type":"VEC2"
		},
		{
			"bufferView":19,
			"componentType":5123,
			"count":48,
			"type":"SCALAR"
		},
		{
			"bufferView":20,
			"componentType":5126,
			"count":18,
			"max":[
				10.239999771118164,
				-8.950398445129395,
				10.239999771118164
			],
			"min":[
				-10.239999771118164,
				-9.250398635864258,
				-1.6570192575454712
			],
			"type":"VEC3"
		},
		{
			"bufferView":21,
			"componentType":5126,
			"count":18,
			"type":"VEC3"
		},
		{
			"bufferView":22,
			"componentType":5126,
			"count":18,
			"type":"VEC2"
		},
		{
			"bufferView":23,
			"componentType":5123,
			"count":24,
			"type":"SCALAR"
		},
		{
			"bufferView":24,
			"componentType":5126,
			"count":36,
			"max":[
				10.239998817443848,
				1.0929805040359497,
				10.239999771118164
			],
			"min":[
				-10.239998817443848,
				-1.2503986358642578,
				1.563616394996643
			],
			"type":"VEC3"
		},
		{
			"bufferView":25,
			"componentType":5126,
			"count":36,
			"type":"VEC3"
		},
		{
			"bufferView":26,
			"componentType":5126,
			"count":36,
			"type":"VEC2"
		},
		{
			"bufferView":27,
			"componentType":5123,
			"count":48,
			"type":"SCALAR"
		}
	],
	"bufferViews":[
		{
			"buffer":0,
			"byteLength":1476,
			"byteOffset":0,
			"target":34962
		},
		{
			"buffer":0,
			"byteLength":1476,
			"byteOffset":1476,
			"target":34962
		},
		{
			"buffer":0,
			"byteLength":984,
			"byteOffset":2952,
			"target":34962
		},
		{
			"buffer":0,
			"byteLength":462,
			"byteOffset":3936,
			"target":34963
		},
		{
			"buffer":0,
			"byteLength":204,
			"byteOffset":4400,
			"target":34962
		},
		{
			"buffer":0,
			"byteLength":204,
			"byteOffset":4604,
			"target":34962
		},
		{
			"buffer":0,
			"byteLength":136,
			"byteOffset":4808,
			"target":34962
		},
		{
			"buffer":0,
			"byteLength":96,
			"byteOffset":4944,
			"target":34963
		},
		{
			"buffer":0,
			"byteLength":516,
			"byteOffset":5040,
			"target":34962
		},
		{
			"buffer":0,
			"byteLength":516,
			"byteOffset":5556,
			"target":34962
		},
		{
			"buffer":0,
			"byteLength":344,
			"byteOffset":6072,
			"target":34962
		},
		{
			"buffer":0,
			"byteLength":132,
			"byteOffset":6416,
			"target":34963
		},
		{
			"buffer":0,
			"byteLength":852,
			"byteOffset":6548,
			"target":34962
		},
		{
			"buffer":0,
			"byteLength":852,
			"byteOffset":7400,
			"target":34962
		},
		{
			"buffer":0,
			"byteLength":568,
			"byteOffset":8252,
			"target":34962
		},
		{
			"buffer":0,
			"byteLength":222,
			"byteOffset":8820,
			"target":34963
		},
		{
			"buffer":0,
			"byteLength":240,
			"byteOffset":9044,
			"target":34962
		},
		{
			"buffer":0,
			"byteLength":240,
			"byteOffset":9284,
			"target":34962
		},
		{
			"buffer":0,
			"byteLength":160,
			"byteOffset":9524,
			"target":34962
		},
		{
			"buffer":0,
			"byteLength":96,
			"byteOffset":9684,
			"target":34963
		},
		{
			"buffer":0,
			"byteLength":216,
			"byteOffset":9780,
			"target":34962
		},
		{
			"buffer":0,
			"byteLength":216,
			"byteOffset":9996,
			"target":34962
		},
		{
			"buffer":0,
			"byteLength":144,
			"byteOffset":10212,
			"target":34962
		},
		{
			"buffer":0,
			"byteLength":48,
			"byteOffset":10356,
			"target":34963
		},
		{
			"buffer":0,
			"byteLength":432,
			"byteOffset":10404,
			"target":34962
		},
		{
			"buffer":0,
			"byteLength":432,
			"byteOffset":10836,
			"target":34962
		},
		{
			"buffer":0,
			"byteLength":288,
			"byteOffset":11268,
			"target":34962
		},
		{
			"buffer":0,
			"byteLength":96,
			"byteOffset":11556,
			"target":34963
		}
	],
	"buffers":[
		{
			"byteLength":11652,
			"uri":"room3_pit.bin"
		}
	]
}
