{
	"asset":{
		"generator":"Khronos glTF Blender I/O v4.4.55",
		"version":"2.0"
	},
	"scene":0,
	"scenes":[
		{
			"name":"Scene",
			"nodes":[
				0
			]
		}
	],
	"nodes":[
		{
			"mesh":0,
			"name":"Icosphere"
		}
	],
	"materials":[
		{
			"doubleSided":true,
			"name":"Material.001",
			"pbrMetallicRoughness":{
				"baseColorFactor":[
					0.06555630266666412,
					0.06555630266666412,
					0.06555630266666412,
					1
				],
				"metallicFactor":0,
				"roughnessFactor":0.5
			}
		}
	],
	"meshes":[
		{
			"name":"Icosphere.001",
			"primitives":[
				{
					"attributes":{
						"POSITION":0,
						"NORMAL":1,
						"TEXCOORD_0":2
					},
					"indices":3,
					"material":0
				}
			]
		}
	],
	"accessors":[
		{
			"bufferView":0,
			"componentType":5126,
			"count":5766,
			"max":[
				1.7148760557174683,
				1.8944863080978394,
				1.9711463451385498
			],
			"min":[
				-1.6447875499725342,
				-1.271254539489746,
				-1.8152742385864258
			],
			"type":"VEC3"
		},
		{
			"bufferView":1,
			"componentType":5126,
			"count":5766,
			"type":"VEC3"
		},
		{
			"bufferView":2,
			"componentType":5126,
			"count":5766,
			"type":"VEC2"
		},
		{
			"bufferView":3,
			"componentType":5123,
			"count":23334,
			"type":"SCALAR"
		}
	],
	"bufferViews":[
		{
			"buffer":0,
			"byteLength":69192,
			"byteOffset":0,
			"target":34962
		},
		{
			"buffer":0,
			"byteLength":69192,
			"byteOffset":69192,
			"target":34962
		},
		{
			"buffer":0,
			"byteLength":46128,
			"byteOffset":138384,
			"target":34962
		},
		{
			"buffer":0,
			"byteLength":46668,
			"byteOffset":184512,
			"target":34963
		}
	],
	"buffers":[
		{
			"byteLength":231180,
			"uri":"Scp162Prop.bin"
		}
	]
}
