{
	"asset":{
		"generator":"Khronos glTF Blender I/O v4.2.57",
		"version":"2.0"
	},
	"scene":0,
	"scenes":[
		{
			"name":"Scene",
			"nodes":[
				0,
				1
			]
		}
	],
	"nodes":[
		{
			"mesh":0,
			"name":"Sphere"
		},
		{
			"mesh":1,
			"name":"Cylinder",
			"translation":[
				0,
				0.22999998927116394,
				-0.0010223364224657416
			]
		}
	],
	"materials":[
		{
			"doubleSided":true,
			"name":"Material.001",
			"normalTexture":{
				"index":0
			},
			"pbrMetallicRoughness":{
				"baseColorTexture":{
					"index":1
				},
				"metallicFactor":0,
				"metallicRoughnessTexture":{
					"index":2
				}
			}
		},
		{
			"doubleSided":true,
			"name":"Material.002",
			"normalTexture":{
				"index":3
			},
			"pbrMetallicRoughness":{
				"baseColorTexture":{
					"index":4
				},
				"metallicFactor":0,
				"metallicRoughnessTexture":{
					"index":5
				}
			}
		}
	],
	"meshes":[
		{
			"name":"Sphere",
			"primitives":[
				{
					"attributes":{
						"POSITION":0,
						"NORMAL":1,
						"TEXCOORD_0":2
					},
					"indices":3,
					"material":0
				}
			]
		},
		{
			"name":"Cylinder",
			"primitives":[
				{
					"attributes":{
						"POSITION":4,
						"NORMAL":5,
						"TEXCOORD_0":6
					},
					"indices":7,
					"material":1
				}
			]
		}
	],
	"textures":[
		{
			"sampler":0,
			"source":0
		},
		{
			"sampler":0,
			"source":1
		},
		{
			"sampler":0,
			"source":2
		},
		{
			"sampler":0,
			"source":3
		},
		{
			"sampler":0,
			"source":4
		},
		{
			"sampler":0,
			"source":5
		}
	],
	"images":[
		{
			"mimeType":"image/png",
			"name":"Scp109_Sphere_nor",
			"uri":"Scp109_Sphere_nor.png"
		},
		{
			"mimeType":"image/png",
			"name":"Scp109_Sphere_base",
			"uri":"Scp109_Sphere_base.png"
		},
		{
			"mimeType":"image/png",
			"name":"Scp109_Sphere_rough",
			"uri":"Scp109_Sphere_rough.png"
		},
		{
			"mimeType":"image/png",
			"name":"Scp109_Cylinder_nor",
			"uri":"Scp109_Cylinder_nor.png"
		},
		{
			"mimeType":"image/png",
			"name":"Scp109_Cylinder_base",
			"uri":"Scp109_Cylinder_base.png"
		},
		{
			"mimeType":"image/png",
			"name":"Scp109_Cylinder_rough",
			"uri":"Scp109_Cylinder_rough.png"
		}
	],
	"accessors":[
		{
			"bufferView":0,
			"componentType":5126,
			"count":425,
			"max":[
				0.05912284553050995,
				0.2225409895181656,
				0.20561103522777557
			],
			"min":[
				-0.05912282317876816,
				-0.20561109483242035,
				-0.2056109756231308
			],
			"type":"VEC3"
		},
		{
			"bufferView":1,
			"componentType":5126,
			"count":425,
			"type":"VEC3"
		},
		{
			"bufferView":2,
			"componentType":5126,
			"count":425,
			"type":"VEC2"
		},
		{
			"bufferView":3,
			"componentType":5123,
			"count":2160,
			"type":"SCALAR"
		},
		{
			"bufferView":4,
			"componentType":5126,
			"count":246,
			"max":[
				0.02909807674586773,
				0.0242483951151371,
				0.02909807674586773
			],
			"min":[
				-0.02909807674586773,
				-0.0242483951151371,
				-0.02909807674586773
			],
			"type":"VEC3"
		},
		{
			"bufferView":5,
			"componentType":5126,
			"count":246,
			"type":"VEC3"
		},
		{
			"bufferView":6,
			"componentType":5126,
			"count":246,
			"type":"VEC2"
		},
		{
			"bufferView":7,
			"componentType":5123,
			"count":948,
			"type":"SCALAR"
		}
	],
	"bufferViews":[
		{
			"buffer":0,
			"byteLength":5100,
			"byteOffset":0,
			"target":34962
		},
		{
			"buffer":0,
			"byteLength":5100,
			"byteOffset":5100,
			"target":34962
		},
		{
			"buffer":0,
			"byteLength":3400,
			"byteOffset":10200,
			"target":34962
		},
		{
			"buffer":0,
			"byteLength":4320,
			"byteOffset":13600,
			"target":34963
		},
		{
			"buffer":0,
			"byteLength":2952,
			"byteOffset":17920,
			"target":34962
		},
		{
			"buffer":0,
			"byteLength":2952,
			"byteOffset":20872,
			"target":34962
		},
		{
			"buffer":0,
			"byteLength":1968,
			"byteOffset":23824,
			"target":34962
		},
		{
			"buffer":0,
			"byteLength":1896,
			"byteOffset":25792,
			"target":34963
		}
	],
	"samplers":[
		{
			"magFilter":9729,
			"minFilter":9987
		}
	],
	"buffers":[
		{
			"byteLength":27688,
			"uri":"scp109.bin"
		}
	]
}
