{
	"asset":{
		"generator":"Khronos glTF Blender I/O v4.4.55",
		"version":"2.0"
	},
	"scene":0,
	"scenes":[
		{
			"name":"Scene",
			"nodes":[
				0,
				1
			]
		}
	],
	"nodes":[
		{
			"name":"default"
		},
		{
			"mesh":0,
			"name":"Cube",
			"translation":[
				0,
				0.860662043094635,
				0
			]
		}
	],
	"materials":[
		{
			"doubleSided":true,
			"name":"Walls",
			"pbrMetallicRoughness":{
				"baseColorFactor":[
					0.800000011920929,
					0.800000011920929,
					0.800000011920929,
					1
				],
				"metallicFactor":0,
				"roughnessFactor":0.5
			}
		},
		{
			"doubleSided":true,
			"name":"Ceiling",
			"pbrMetallicRoughness":{
				"baseColorFactor":[
					0.800000011920929,
					0.800000011920929,
					0.800000011920929,
					1
				],
				"metallicFactor":0,
				"roughnessFactor":0.5
			}
		},
		{
			"doubleSided":true,
			"name":"Floor",
			"pbrMetallicRoughness":{
				"baseColorFactor":[
					0.800000011920929,
					0.800000011920929,
					0.800000011920929,
					1
				],
				"metallicFactor":0,
				"roughnessFactor":0.5
			}
		}
	],
	"meshes":[
		{
			"name":"Cube.001",
			"primitives":[
				{
					"attributes":{
						"POSITION":0,
						"NORMAL":1,
						"TEXCOORD_0":2
					},
					"indices":3,
					"material":0
				},
				{
					"attributes":{
						"POSITION":4,
						"NORMAL":5,
						"TEXCOORD_0":6
					},
					"indices":7,
					"material":1
				},
				{
					"attributes":{
						"POSITION":8,
						"NORMAL":9,
						"TEXCOORD_0":10
					},
					"indices":11,
					"material":2
				}
			]
		}
	],
	"accessors":[
		{
			"bufferView":0,
			"componentType":5126,
			"count":44,
			"max":[
				10.240440368652344,
				5.130503177642822,
				10.235640525817871
			],
			"min":[
				-10.239425659179688,
				-2.1302287578582764,
				-3.99564528465271
			],
			"type":"VEC3"
		},
		{
			"bufferView":1,
			"componentType":5126,
			"count":44,
			"type":"VEC3"
		},
		{
			"bufferView":2,
			"componentType":5126,
			"count":44,
			"type":"VEC2"
		},
		{
			"bufferView":3,
			"componentType":5123,
			"count":66,
			"type":"SCALAR"
		},
		{
			"bufferView":4,
			"componentType":5126,
			"count":20,
			"max":[
				10.240440368652344,
				5.130503177642822,
				10.235640525817871
			],
			"min":[
				-10.239424705505371,
				5.115445613861084,
				-3.99564528465271
			],
			"type":"VEC3"
		},
		{
			"bufferView":5,
			"componentType":5126,
			"count":20,
			"type":"VEC3"
		},
		{
			"bufferView":6,
			"componentType":5126,
			"count":20,
			"type":"VEC2"
		},
		{
			"bufferView":7,
			"componentType":5123,
			"count":36,
			"type":"SCALAR"
		},
		{
			"bufferView":8,
			"componentType":5126,
			"count":20,
			"max":[
				10.240440368652344,
				-2.115445613861084,
				10.235640525817871
			],
			"min":[
				-10.239425659179688,
				-2.1302287578582764,
				-3.99564528465271
			],
			"type":"VEC3"
		},
		{
			"bufferView":9,
			"componentType":5126,
			"count":20,
			"type":"VEC3"
		},
		{
			"bufferView":10,
			"componentType":5126,
			"count":20,
			"type":"VEC2"
		},
		{
			"bufferView":11,
			"componentType":5123,
			"count":36,
			"type":"SCALAR"
		}
	],
	"bufferViews":[
		{
			"buffer":0,
			"byteLength":528,
			"byteOffset":0,
			"target":34962
		},
		{
			"buffer":0,
			"byteLength":528,
			"byteOffset":528,
			"target":34962
		},
		{
			"buffer":0,
			"byteLength":352,
			"byteOffset":1056,
			"target":34962
		},
		{
			"buffer":0,
			"byteLength":132,
			"byteOffset":1408,
			"target":34963
		},
		{
			"buffer":0,
			"byteLength":240,
			"byteOffset":1540,
			"target":34962
		},
		{
			"buffer":0,
			"byteLength":240,
			"byteOffset":1780,
			"target":34962
		},
		{
			"buffer":0,
			"byteLength":160,
			"byteOffset":2020,
			"target":34962
		},
		{
			"buffer":0,
			"byteLength":72,
			"byteOffset":2180,
			"target":34963
		},
		{
			"buffer":0,
			"byteLength":240,
			"byteOffset":2252,
			"target":34962
		},
		{
			"buffer":0,
			"byteLength":240,
			"byteOffset":2492,
			"target":34962
		},
		{
			"buffer":0,
			"byteLength":160,
			"byteOffset":2732,
			"target":34962
		},
		{
			"buffer":0,
			"byteLength":72,
			"byteOffset":2892,
			"target":34963
		}
	],
	"buffers":[
		{
			"byteLength":2964,
			"uri":"room3.bin"
		}
	]
}
