<?xml version="1.0" encoding="UTF-8" standalone="no"?>
<!-- Created with Inkscape (http://www.inkscape.org/) -->

<svg
   width="16.0px"
   height="16.0px"
   viewBox="0 0 16.0 16.0"
   version="1.1"
   id="SVGRoot"
   sodipodi:docname="MapGenResource.svg"
   inkscape:version="1.2.1 (9c6d41e410, 2022-07-14)"
   xml:space="preserve"
   xmlns:inkscape="http://www.inkscape.org/namespaces/inkscape"
   xmlns:sodipodi="http://sodipodi.sourceforge.net/DTD/sodipodi-0.dtd"
   xmlns="http://www.w3.org/2000/svg"
   xmlns:svg="http://www.w3.org/2000/svg"><sodipodi:namedview
     id="namedview187"
     pagecolor="#505050"
     bordercolor="#ffffff"
     borderopacity="1"
     inkscape:showpageshadow="0"
     inkscape:pageopacity="0"
     inkscape:pagecheckerboard="1"
     inkscape:deskcolor="#505050"
     inkscape:document-units="px"
     showgrid="true"
     inkscape:zoom="33.96"
     inkscape:cx="6.4782097"
     inkscape:cy="7.0671378"
     inkscape:window-width="1920"
     inkscape:window-height="1009"
     inkscape:window-x="-8"
     inkscape:window-y="-8"
     inkscape:window-maximized="1"
     inkscape:current-layer="layer1"><inkscape:grid
       type="xygrid"
       id="grid310" /></sodipodi:namedview><defs
     id="defs182" /><g
     inkscape:label="Слой 1"
     inkscape:groupmode="layer"
     id="layer1"><path
       fill="#e0e0e0"
       d="m 10.441459,12.458273 a 0.28276619,0.28276619 0 0 0 -0.156369,0.253358 v 1.696597 a 0.28276619,0.28276619 0 0 0 0.156369,0.253076 l 1.696597,0.848299 a 0.28276619,0.28276619 0 0 0 0.252793,0 l 1.696597,-0.848299 a 0.28276619,0.28276619 0 0 0 0.15637,-0.253076 v -1.696597 a 0.28276619,0.28276619 0 0 0 -0.15637,-0.252793 L 12.390849,11.61054 a 0.28276619,0.28276619 0 0 0 -0.252793,0 z m 1.822994,-0.282766 1.064332,0.532165 -1.064332,0.532166 -1.064332,-0.532166 z m -1.413831,0.989681 1.131065,0.565533 v 1.064897 l -1.131065,-0.565532 z"
       id="path9642"
       style="stroke-width:0.282766" /><rect
       style="fill:#ffffff;fill-opacity:0;stroke:#e0e0e0;stroke-width:1.00157;stroke-dasharray:none;stroke-opacity:1"
       id="rect5745"
       width="8.0977621"
       height="4.0341578"
       x="6.4339418"
       y="6.4340401" /><path
       style="fill:#ffffff;fill-opacity:0;stroke:#e0e0e0;stroke-width:1.00157;stroke-dasharray:none;stroke-opacity:1"
       d="m 10.438653,2.8710247 v 3.621908"
       id="path5803" /><path
       style="fill:#ffffff;fill-opacity:0;stroke:#e0e0e0;stroke-width:1.00157;stroke-dasharray:none;stroke-opacity:1"
       d="M 6.492835,10.468198 H 2.4586771 V 2.5176677"
       id="path5807" /><path
       style="fill:#ffffff;fill-opacity:0;stroke:#e0e0e0;stroke-width:1.00157;stroke-dasharray:none;stroke-opacity:1"
       d="m 6.4633886,10.61543 v 3.651355"
       id="path5811" /><rect
       style="fill:#e0e0e0;fill-opacity:1;stroke:none;stroke-width:1.37562;stroke-dasharray:none;stroke-opacity:1"
       id="rect5869"
       width="3.03298"
       height="3.0329802"
       x="0.92746395"
       y="0.92756188" /><rect
       style="fill:#e0e0e0;fill-opacity:1;stroke:none;stroke-width:1.37561;stroke-dasharray:none;stroke-opacity:1"
       id="rect5869-6"
       width="3.03298"
       height="3.03298"
       x="4.9616213"
       y="11.940519" /><rect
       style="fill:#e0e0e0;fill-opacity:1;stroke:none;stroke-width:1.37754;stroke-dasharray:none;stroke-opacity:1"
       id="rect5869-1"
       width="3.03298"
       height="3.0415041"
       x="8.9663324"
       y="0.97793114" /></g></svg>
