<?xml version="1.0" encoding="UTF-8" standalone="no"?>
<!-- Created with Inkscape (http://www.inkscape.org/) -->

<svg
   width="16.0px"
   height="16.0px"
   viewBox="0 0 16.0 16.0"
   version="1.1"
   id="SVGRoot"
   sodipodi:docname="MapGenNode3D.svg"
   inkscape:version="1.2.1 (9c6d41e410, 2022-07-14)"
   xml:space="preserve"
   xmlns:inkscape="http://www.inkscape.org/namespaces/inkscape"
   xmlns:sodipodi="http://sodipodi.sourceforge.net/DTD/sodipodi-0.dtd"
   xmlns="http://www.w3.org/2000/svg"
   xmlns:svg="http://www.w3.org/2000/svg"><sodipodi:namedview
     id="namedview187"
     pagecolor="#505050"
     bordercolor="#ffffff"
     borderopacity="1"
     inkscape:showpageshadow="0"
     inkscape:pageopacity="0"
     inkscape:pagecheckerboard="1"
     inkscape:deskcolor="#505050"
     inkscape:document-units="px"
     showgrid="true"
     inkscape:zoom="33.96"
     inkscape:cx="7.6266196"
     inkscape:cy="8.8928151"
     inkscape:window-width="1920"
     inkscape:window-height="1009"
     inkscape:window-x="-8"
     inkscape:window-y="-8"
     inkscape:window-maximized="1"
     inkscape:current-layer="layer1"
     showguides="true"><inkscape:grid
       type="xygrid"
       id="grid310" /><sodipodi:guide
       position="18.698469,5.1048292"
       orientation="0,-1"
       id="guide3965"
       inkscape:locked="false" /></sodipodi:namedview><defs
     id="defs182" /><g
     inkscape:label="Слой 1"
     inkscape:groupmode="layer"
     id="layer1"><rect
       style="fill:#ffffff;fill-opacity:0;stroke:#fc7f7f;stroke-width:1.00157;stroke-dasharray:none;stroke-opacity:1"
       id="rect5745"
       width="8.0977621"
       height="4.0341578"
       x="6.4782095"
       y="6.4487634" /><path
       style="fill:#ffffff;fill-opacity:0;stroke:#fc7f7f;stroke-width:1.00157;stroke-dasharray:none;stroke-opacity:1"
       d="M 10.482921,2.885748 V 6.5076561"
       id="path5803" /><path
       style="fill:#ffffff;fill-opacity:0;stroke:#fc7f7f;stroke-width:1.00157;stroke-dasharray:none;stroke-opacity:1"
       d="M 6.5371025,10.482921 H 2.5029446 v -7.95053"
       id="path5807" /><path
       style="fill:#ffffff;fill-opacity:0;stroke:#fc7f7f;stroke-width:1.00157;stroke-dasharray:none;stroke-opacity:1"
       d="m 6.5076561,10.630153 v 3.651355"
       id="path5811" /><rect
       style="fill:#fc7f7f;fill-opacity:1;stroke:none;stroke-width:1.37562;stroke-dasharray:none;stroke-opacity:1"
       id="rect5869"
       width="3.03298"
       height="3.0329802"
       x="0.97173142"
       y="0.94228506" /><rect
       style="fill:#fc7f7f;fill-opacity:1;stroke:none;stroke-width:1.37561;stroke-dasharray:none;stroke-opacity:1"
       id="rect5869-6"
       width="3.03298"
       height="3.03298"
       x="5.0058889"
       y="11.955242" /><rect
       style="fill:#fc7f7f;fill-opacity:1;stroke:none;stroke-width:1.37754;stroke-dasharray:none;stroke-opacity:1"
       id="rect5869-1"
       width="3.03298"
       height="3.0415041"
       x="9.0106001"
       y="0.99265313" /><path
       fill="#ffffff"
       d="m 12.382214,11.93404 c -1.802709,0 -1.802709,0 -1.802709,1.802709 0,1.802709 0,1.802709 1.802709,1.802709 1.802709,0 1.802709,0 1.802709,-1.802709 0,-1.802709 0,-1.802709 -1.802709,-1.802709 z m -0.965737,0.321912 a 0.51506,0.51506 0 0 1 0,1.03012 0.51506,0.51506 0 0 1 0,-1.03012 z m 0.965737,0.965737 a 0.51506,0.51506 0 0 1 0,1.03012 0.51506,0.51506 0 0 1 0,-1.03012 z m 0.965737,0.965737 a 0.51506,0.51506 0 0 1 0,1.03012 0.51506,0.51506 0 0 1 0,-1.03012 z"
       id="path7442"
       style="fill:#fc7f7f;fill-opacity:1;stroke-width:0.25753;stroke:none;stroke-opacity:1" /></g></svg>
