{
	"asset":{
		"generator":"Khronos glTF Blender I/O v4.2.57",
		"version":"2.0"
	},
	"scene":0,
	"scenes":[
		{
			"name":"Scene",
			"nodes":[
				0,
				1
			]
		}
	],
	"nodes":[
		{
			"mesh":0,
			"name":"power_box_01_box",
			"translation":[
				0,
				0,
				0.04748108983039856
			]
		},
		{
			"mesh":1,
			"name":"power_box_01_door",
			"translation":[
				0,
				0,
				0.04781842231750488
			]
		}
	],
	"materials":[
		{
			"doubleSided":true,
			"name":"power_box_01",
			"normalTexture":{
				"index":0
			},
			"pbrMetallicRoughness":{
				"baseColorTexture":{
					"index":1
				},
				"metallicRoughnessTexture":{
					"index":2
				}
			}
		}
	],
	"meshes":[
		{
			"name":"Cube.002",
			"primitives":[
				{
					"attributes":{
						"POSITION":0,
						"NORMAL":1,
						"TEXCOORD_0":2
					},
					"indices":3,
					"material":0
				}
			]
		},
		{
			"name":"Plane",
			"primitives":[
				{
					"attributes":{
						"POSITION":4,
						"NORMAL":5,
						"TEXCOORD_0":6
					},
					"indices":7,
					"material":0
				}
			]
		}
	],
	"textures":[
		{
			"sampler":0,
			"source":0
		},
		{
			"sampler":0,
			"source":1
		},
		{
			"sampler":0,
			"source":2
		}
	],
	"images":[
		{
			"mimeType":"image/png",
			"name":"power_box_01_nor_gl",
			"uri":"power_box_01_nor_gl.png"
		},
		{
			"mimeType":"image/jpeg",
			"name":"power_box_01_diff",
			"uri":"power_box_01_diff.jpg"
		},
		{
			"mimeType":"image/png",
			"name":"power_box_01_metal-power_box_01_rough",
			"uri":"power_box_01_metal-power_box_01_rough.png"
		}
	],
	"accessors":[
		{
			"bufferView":0,
			"componentType":5126,
			"count":16414,
			"max":[
				0.1750074326992035,
				0.251571387052536,
				0.04702533781528473
			],
			"min":[
				-0.17049908638000488,
				-0.251571387052536,
				-0.04748108983039856
			],
			"type":"VEC3"
		},
		{
			"bufferView":1,
			"componentType":5126,
			"count":16414,
			"type":"VEC3"
		},
		{
			"bufferView":2,
			"componentType":5126,
			"count":16414,
			"type":"VEC2"
		},
		{
			"bufferView":3,
			"componentType":5123,
			"count":48915,
			"type":"SCALAR"
		},
		{
			"bufferView":4,
			"componentType":5126,
			"count":1256,
			"max":[
				0.16511590778827667,
				0.24160124361515045,
				0.05965837091207504
			],
			"min":[
				-0.16712519526481628,
				-0.24546150863170624,
				0.039912041276693344
			],
			"type":"VEC3"
		},
		{
			"bufferView":5,
			"componentType":5126,
			"count":1256,
			"type":"VEC3"
		},
		{
			"bufferView":6,
			"componentType":5126,
			"count":1256,
			"type":"VEC2"
		},
		{
			"bufferView":7,
			"componentType":5123,
			"count":4248,
			"type":"SCALAR"
		}
	],
	"bufferViews":[
		{
			"buffer":0,
			"byteLength":196968,
			"byteOffset":0,
			"target":34962
		},
		{
			"buffer":0,
			"byteLength":196968,
			"byteOffset":196968,
			"target":34962
		},
		{
			"buffer":0,
			"byteLength":131312,
			"byteOffset":393936,
			"target":34962
		},
		{
			"buffer":0,
			"byteLength":97830,
			"byteOffset":525248,
			"target":34963
		},
		{
			"buffer":0,
			"byteLength":15072,
			"byteOffset":623080,
			"target":34962
		},
		{
			"buffer":0,
			"byteLength":15072,
			"byteOffset":638152,
			"target":34962
		},
		{
			"buffer":0,
			"byteLength":10048,
			"byteOffset":653224,
			"target":34962
		},
		{
			"buffer":0,
			"byteLength":8496,
			"byteOffset":663272,
			"target":34963
		}
	],
	"samplers":[
		{
			"magFilter":9729,
			"minFilter":9987
		}
	],
	"buffers":[
		{
			"byteLength":671768,
			"uri":"power_box_01_2k.bin"
		}
	]
}
